<svg width="175" height="35" viewBox="0 0 175 35" fill="none" xmlns="http://www.w3.org/2000/svg">
<path d="M2.05882 0H47.3529C48.4853 0 49.4118 0.871972 49.4118 1.93772V31.0035C49.4118 32.0692 48.4853 32.9412 47.3529 32.9412H2.05882C0.926471 32.9412 0 32.0692 0 31.0035V1.93772C0 0.871972 0.926471 0 2.05882 0Z" fill="#4361C3"/>
<path d="M30.625 10.2941C34.7426 10.2941 38.0882 13.6397 38.0882 17.7573C38.0882 21.8749 34.7426 25.2205 30.625 25.2205C26.5073 25.2205 23.1617 21.8749 23.1617 17.7573C23.1617 13.6397 26.5073 10.2941 30.625 10.2941Z" fill="#FFAF38"/>
<rect x="24.1912" y="13.8971" width="5.14706" height="1.02941" fill="#FFAF38"/>
<path d="M18.7868 25.2205C14.6691 25.2205 11.3235 21.8749 11.3235 17.7573C11.3235 13.6397 14.6691 10.2941 18.7868 10.2941C22.9044 10.2941 26.25 13.6397 26.25 17.7573C26.25 21.8749 22.9044 25.2205 18.7868 25.2205Z" fill="#EB3636"/>
<path fill-rule="evenodd" clip-rule="evenodd" d="M30.8823 13.8971H24.1912V14.9265H30.8823V13.8971ZM24.1912 20.0736V21.103H30.8823V20.0736H24.1912ZM30.3676 16.9853H23.6765V15.9559H30.3676V16.9853ZM23.6765 19.0442H30.3676V18.0147H23.6765V19.0442Z" fill="#FFAF38"/>
<path opacity="0.05" d="M2.05882 35H2.98529L49.4118 2.98529V2.05882C49.4118 0.926471 48.4853 0 47.3529 0H2.05882C0.926471 0 0 0.926471 0 2.05882V32.9412C0 34.0735 0.926471 35 2.05882 35Z" fill="white"/>
<rect x="62.5883" y="8.7196" width="49.4118" height="15.5017" fill="#F9F9F9"/>
<path d="M64.6471 0H109.941C111.074 0 112 0.871972 112 1.93772V8.71972H62.5883V1.93772C62.5883 0.871972 63.5147 0 64.6471 0Z" fill="#09599E"/>
<path d="M62.5883 24.2216H112V31.0036C112 32.0693 111.074 32.9413 109.941 32.9413H64.6471C63.5147 32.9413 62.5883 32.0693 62.5883 31.0036V24.2216Z" fill="#E59703"/>
<path opacity="0.05" d="M64.6471 32.8927C63.5147 32.8927 62.5883 32.0208 62.5883 30.955V1.93772C62.5883 0.871972 63.5147 0 64.6471 0H109.941C111.074 0 112 0.871972 112 1.93772" fill="white"/>
<path d="M81.6838 20.5398L83.1765 12.3529H85.5441L84.0515 20.5398H81.6838Z" fill="#00589F"/>
<path d="M92.6471 12.5951C92.1838 12.4498 91.4632 12.256 90.5368 12.256C88.1691 12.256 86.5221 13.3702 86.5221 14.9688C86.5221 16.1314 87.7059 16.8096 88.5809 17.1972C89.5074 17.5847 89.8162 17.8754 89.8162 18.2145C89.8162 18.7473 89.0956 19.038 88.375 19.038C87.4485 19.038 86.9338 18.8927 86.1618 18.602L85.853 18.4082L85.5441 20.2491C86.1103 20.4913 87.1397 20.685 88.1691 20.685C90.6397 20.685 92.2868 19.5709 92.2868 17.8754C92.2868 16.9549 91.6691 16.2283 90.2794 15.647C89.4559 15.2594 88.9412 15.0172 88.9412 14.6297C88.9412 14.2906 89.353 13.903 90.2794 13.903C91.0515 13.903 91.6177 14.0484 92.0294 14.1937L92.2353 14.2906L92.6471 12.5951" fill="#00589F"/>
<path fill-rule="evenodd" clip-rule="evenodd" d="M96.8677 12.4014H98.7206L100.677 20.5882H98.4633C98.4633 20.5882 98.2059 19.6678 98.1544 19.3771H95.1177C95.0147 19.5709 94.603 20.5882 94.603 20.5882H92.1324L95.6324 13.0796C95.8897 12.5467 96.3015 12.4014 96.8677 12.4014ZM96.7133 15.3563C96.7133 15.3563 95.9927 17.1487 95.7868 17.6332V17.6816H97.7427C97.6397 17.2456 97.1765 15.3079 97.1765 15.3079L97.0221 14.5813C96.9191 14.8719 96.7133 15.3563 96.7133 15.3563Z" fill="#00589F"/>
<path d="M79.6765 12.4013L77.3603 17.9723L77.103 16.8581C76.6912 15.5501 75.3015 14.1453 73.8088 13.4186L75.9706 20.5398H78.4927L82.25 12.3529H79.6765" fill="#00589F"/>
<path d="M75.1986 12.3529H71.3897L71.3383 12.5467C74.3236 13.2249 76.2794 14.8719 77.103 16.8097L76.2794 13.0795C76.1765 12.5467 75.7133 12.4013 75.1986 12.3529" fill="#F9A51A"/>
<path d="M127.235 0H172.529C173.662 0 174.588 0.871972 174.588 1.93772V31.0035C174.588 32.0692 173.662 32.9412 172.529 32.9412H127.235C126.103 32.9412 125.176 32.0692 125.176 31.0035V1.93772C125.176 0.871972 126.103 0 127.235 0Z" fill="#2AA0D0"/>
<path fill-rule="evenodd" clip-rule="evenodd" d="M152.971 12.5952H159.147C159.404 12.5952 159.662 12.8374 159.662 13.0796V14.5329C159.662 14.8236 159.456 15.0173 159.147 15.0173H155.544V15.5018H159.044C159.353 15.5018 159.559 15.6955 159.559 15.9862V17.4395C159.559 17.7301 159.353 17.9239 159.044 17.9239H155.544V18.4083H159.147C159.456 18.4083 159.662 18.6021 159.662 18.8928V20.3461C159.662 20.6367 159.456 20.8305 159.147 20.8305H152.971C152.713 20.8305 152.456 20.6367 152.456 20.3945C152.456 20.6367 152.199 20.8305 151.941 20.8305H149.882C149.574 20.8305 149.368 20.6367 149.368 20.3461V17.5364L148.029 20.5398C147.978 20.7336 147.772 20.8305 147.566 20.8305H145.971C145.765 20.8305 145.61 20.7336 145.507 20.5398L144.221 17.5848V20.3461C144.221 20.6367 144.015 20.8305 143.706 20.8305H139.588C139.382 20.8305 139.228 20.7336 139.125 20.5398L138.404 18.8928H135.574L134.801 20.5398C134.75 20.7336 134.544 20.8305 134.338 20.8305H132.125C131.971 20.8305 131.816 20.7336 131.713 20.5883C131.61 20.4429 131.61 20.2492 131.662 20.1038L135.213 12.8374C135.316 12.6436 135.471 12.5468 135.676 12.5468H138.404C138.61 12.5468 138.765 12.6436 138.868 12.8374L141.132 17.5848V13.0312C141.132 12.7405 141.338 12.5468 141.647 12.5468H144.324C144.529 12.5468 144.684 12.6921 144.787 12.8374L146.846 16.7613L148.493 12.8859C148.544 12.6921 148.75 12.5952 148.956 12.5952H151.941C152.199 12.5952 152.456 12.789 152.456 13.0312C152.456 12.789 152.713 12.5952 152.971 12.5952ZM137.015 15.5017L136.551 16.4706H137.478L137.015 15.5017Z" fill="#2AA0D0"/>
<path fill-rule="evenodd" clip-rule="evenodd" d="M165.684 16.7613L167.743 18.8443C167.846 18.9412 167.897 19.0381 167.897 19.1835V20.3461C167.897 20.4914 167.846 20.5883 167.743 20.6852C167.64 20.7821 167.537 20.8305 167.382 20.8305H166.044C165.941 20.8305 165.787 20.7821 165.684 20.6852L163.728 18.7475L161.772 20.6852C161.669 20.7821 161.566 20.8305 161.412 20.8305H160.176C159.868 20.8305 159.662 20.6367 159.662 20.3461V13.0796C159.662 12.789 159.868 12.5952 160.176 12.5952H161.566C161.721 12.5952 161.824 12.6437 161.926 12.789L163.779 14.7751L165.581 12.7405C165.684 12.6437 165.838 12.5952 165.993 12.5952H167.382C167.537 12.5952 167.64 12.6437 167.743 12.7405C167.846 12.8374 167.897 12.9343 167.897 13.0796V14.3392C167.897 14.4845 167.846 14.5814 167.743 14.6783L165.684 16.7613ZM160.691 15.5501V17.9239L161.875 16.7128L160.691 15.5501Z" fill="#2AA0D0"/>
<path d="M135.779 16.9552H138.25L137.015 14.3392L135.779 16.9552Z" fill="white"/>
<path d="M160.176 19.1835L162.596 16.7614L160.176 14.3392V19.1835Z" fill="white"/>
<path fill-rule="evenodd" clip-rule="evenodd" d="M166.404 16.7612L168.154 18.5052C168.309 18.699 168.412 18.9412 168.412 19.1834V20.346C168.412 20.5882 168.309 20.8304 168.103 21.0242C167.897 21.218 167.64 21.3149 167.382 21.3149H166.147C165.838 21.3149 165.581 21.218 165.375 21.0242L163.779 19.4256L162.184 21.0242C161.978 21.218 161.669 21.3149 161.412 21.3149H160.176C159.971 21.3149 159.816 21.2664 159.662 21.1695C159.507 21.2664 159.353 21.3149 159.147 21.3149H152.971C152.765 21.3149 152.61 21.2664 152.456 21.1695C152.301 21.2664 152.147 21.3149 151.941 21.3149H149.882C149.316 21.3149 148.853 20.8789 148.853 20.346V20.1038L148.544 20.8304C148.338 21.1695 147.978 21.4118 147.566 21.4118H145.971C145.559 21.4118 145.199 21.1695 145.044 20.8304L144.735 20.1038V20.4429C144.735 20.9758 144.272 21.4118 143.706 21.4118H139.588C139.125 21.4118 138.765 21.1695 138.61 20.782L138.044 19.4256H135.882L135.265 20.782C135.11 21.1211 134.75 21.3633 134.338 21.3633H132.125C131.765 21.3633 131.456 21.218 131.25 20.9273C131.096 20.6367 131.044 20.2976 131.199 20.0069L134.75 12.7405C134.904 12.4014 135.265 12.1592 135.676 12.1592H138.404C138.816 12.1592 139.176 12.4014 139.331 12.7405L140.618 15.4048V13.128C140.618 12.5951 141.081 12.1592 141.647 12.1592H144.272C144.684 12.1592 145.044 12.3529 145.199 12.692L146.743 15.647L147.978 12.7405C148.132 12.3529 148.544 12.1107 148.956 12.1107H151.941C152.147 12.1107 152.301 12.1592 152.456 12.256C152.61 12.1592 152.765 12.1107 152.971 12.1107H159.147C159.353 12.1107 159.507 12.1592 159.662 12.256C159.816 12.1592 159.971 12.1107 160.176 12.1107H161.566C161.875 12.1107 162.132 12.256 162.338 12.4498L163.779 14L165.221 12.4498C165.426 12.2076 165.684 12.1107 165.993 12.1107H167.382C167.64 12.1107 167.897 12.2076 168.103 12.4014C168.309 12.5951 168.412 12.8374 168.412 13.0796V14.3391C168.412 14.5813 168.309 14.8235 168.154 15.0173L166.404 16.7612ZM149.882 20.346H151.941V13.0796H148.956L146.897 17.9723L144.324 13.0796H141.699V19.8616L138.456 13.0796H135.728L132.176 20.346H134.39L135.265 18.4083H138.765L139.588 20.346H143.706V15.1142L145.971 20.346H147.566L149.882 15.0657V20.346ZM159.147 14.5328H155.029V15.9861H159.044V17.4394H155.029V18.8927H159.147V20.346H152.971V13.0796H159.147V14.5328ZM163.779 18.0207L166.147 20.346H167.382V19.1834L164.963 16.7612L167.382 14.3391V13.0796H165.993L163.779 15.5017L161.566 13.0796H160.176V20.346H161.412L163.779 18.0207Z" fill="white"/>
<path opacity="0.05" d="M127.235 32.9412H128.162L174.588 2.80969V1.93772C174.588 0.871972 173.662 0 172.529 0H127.235C126.103 0 125.176 0.871972 125.176 1.93772V31.0035C125.176 32.0692 126.103 32.9412 127.235 32.9412Z" fill="white"/>
</svg>
