<svg width="1432" height="240" viewBox="0 0 1432 240" fill="none" xmlns="http://www.w3.org/2000/svg">
<circle cx="13.1067" cy="111.342" r="9.36197" fill="white"/>
<circle cx="38.1501" cy="102.214" r="5.85123" fill="white"/>
<circle cx="32.5329" cy="143.407" r="5.85123" fill="white"/>
<circle cx="76.5341" cy="126.087" r="11.4684" fill="white"/>
<circle cx="39.3203" cy="171.259" r="7.02147" fill="white"/>
<circle cx="44.2353" cy="126.087" r="5.85123" fill="white"/>
<circle cx="9.59604" cy="164.003" r="8.65982" fill="white"/>
<circle cx="3.97884" cy="135.917" r="3.97884" fill="white"/>
<circle cx="98.8458" cy="101.4" r="7.66752" transform="rotate(44.687 98.8458 101.4)" fill="white"/>
<circle cx="164.325" cy="110.508" r="4.7922" transform="rotate(44.687 164.325 110.508)" fill="white"/>
<circle cx="137.329" cy="131.259" r="4.7922" transform="rotate(44.687 137.329 131.259)" fill="white"/>
<circle cx="201.927" cy="123.221" r="9.39271" transform="rotate(44.687 201.927 123.221)" fill="white"/>
<circle cx="125.24" cy="151.386" r="5.75064" transform="rotate(44.687 125.24 151.386)" fill="white"/>
<circle cx="154.119" cy="127.914" r="4.7922" transform="rotate(44.687 154.119 127.914)" fill="white"/>
<circle cx="112.111" cy="130.041" r="7.09246" transform="rotate(44.687 112.111 130.041)" fill="white"/>
<circle cx="125.016" cy="110.452" r="3.2587" transform="rotate(44.687 125.016 110.452)" fill="white"/>
<circle cx="613.356" cy="121.794" r="9.36197" transform="rotate(120 613.356 121.794)" fill="white"/>
<circle cx="638.053" cy="149.293" r="5.85123" transform="rotate(120 638.053 149.293)" fill="white"/>
<circle cx="524.305" cy="112.782" r="5.85123" transform="rotate(120 524.305 112.782)" fill="white"/>
<circle cx="499.028" cy="131.974" r="5.85123" transform="rotate(120 499.028 131.974)" fill="white"/>
<circle cx="561.916" cy="138.69" r="7.68364" transform="rotate(120 561.916 138.69)" fill="white"/>
<circle cx="478.158" cy="111.572" r="7.02147" transform="rotate(120 478.158 111.572)" fill="white"/>
<circle cx="613.244" cy="96.8664" r="5.85123" transform="rotate(120 613.244 96.8664)" fill="white"/>
<circle cx="413.926" cy="121.299" r="8.65982" transform="rotate(120 413.926 121.299)" fill="white"/>
<circle cx="573.707" cy="111.16" r="3.97884" transform="rotate(120 573.707 111.16)" fill="white"/>
<circle cx="356.053" cy="131.301" r="9.36197" transform="rotate(147.27 356.053 131.301)" fill="white"/>
<circle cx="326.175" cy="160.563" r="5.85123" transform="rotate(147.27 326.175 160.563)" fill="white"/>
<circle cx="308.628" cy="122.874" r="5.85123" transform="rotate(147.27 308.628 122.874)" fill="white"/>
<circle cx="240.922" cy="121.024" r="7.68364" transform="rotate(147.27 240.922 121.024)" fill="white"/>
<circle cx="287.859" cy="103.114" r="7.02147" transform="rotate(147.27 287.859 103.114)" fill="white"/>
<circle cx="308.148" cy="143.771" r="5.85123" transform="rotate(147.27 308.148 143.771)" fill="white"/>
<circle cx="380.829" cy="104.117" r="8.65982" transform="rotate(147.27 380.829 104.117)" fill="white"/>
<circle cx="336.698" cy="113.736" r="3.97884" transform="rotate(147.27 336.698 113.736)" fill="white"/>
<circle cx="116.89" cy="91.0721" r="9.36197" fill="white"/>
<circle cx="141.933" cy="81.9441" r="5.85123" fill="white"/>
<circle cx="136.316" cy="123.137" r="5.85123" fill="white"/>
<circle cx="180.317" cy="105.817" r="11.4684" fill="white"/>
<circle cx="143.103" cy="150.989" r="7.02147" fill="white"/>
<circle cx="148.018" cy="105.817" r="5.85123" fill="white"/>
<circle cx="113.379" cy="143.733" r="8.65982" fill="white"/>
<circle cx="107.762" cy="115.647" r="3.97884" fill="white"/>
<circle cx="202.629" cy="81.1295" r="7.66752" transform="rotate(44.687 202.629 81.1295)" fill="white"/>
<circle cx="268.108" cy="90.2382" r="4.7922" transform="rotate(44.687 268.108 90.2382)" fill="white"/>
<circle cx="241.112" cy="110.989" r="4.7922" transform="rotate(44.687 241.112 110.989)" fill="white"/>
<circle cx="305.71" cy="102.951" r="9.39271" transform="rotate(44.687 305.71 102.951)" fill="white"/>
<circle cx="229.023" cy="131.115" r="5.75064" transform="rotate(44.687 229.023 131.115)" fill="white"/>
<circle cx="257.902" cy="107.644" r="4.7922" transform="rotate(44.687 257.902 107.644)" fill="white"/>
<circle cx="215.894" cy="109.771" r="7.09246" transform="rotate(44.687 215.894 109.771)" fill="white"/>
<circle cx="228.8" cy="90.1819" r="3.2587" transform="rotate(44.687 228.8 90.1819)" fill="white"/>
<circle cx="717.139" cy="101.524" r="9.36197" transform="rotate(120 717.139 101.524)" fill="white"/>
<circle cx="741.836" cy="129.023" r="5.85123" transform="rotate(120 741.836 129.023)" fill="white"/>
<circle cx="628.089" cy="92.5116" r="5.85123" transform="rotate(120 628.089 92.5116)" fill="white"/>
<circle cx="602.811" cy="111.704" r="5.85123" transform="rotate(120 602.811 111.704)" fill="white"/>
<circle cx="665.699" cy="118.42" r="7.68364" transform="rotate(120 665.699 118.42)" fill="white"/>
<circle cx="581.941" cy="91.3016" r="7.02147" transform="rotate(120 581.941 91.3016)" fill="white"/>
<circle cx="717.027" cy="76.5962" r="5.85123" transform="rotate(120 717.027 76.5962)" fill="white"/>
<circle cx="517.709" cy="101.029" r="8.65982" transform="rotate(120 517.709 101.029)" fill="white"/>
<circle cx="677.49" cy="90.8901" r="3.97884" transform="rotate(120 677.49 90.8901)" fill="white"/>
<circle cx="459.837" cy="111.031" r="9.36197" transform="rotate(147.27 459.837 111.031)" fill="white"/>
<circle cx="429.958" cy="140.293" r="5.85123" transform="rotate(147.27 429.958 140.293)" fill="white"/>
<circle cx="412.411" cy="102.604" r="5.85123" transform="rotate(147.27 412.411 102.604)" fill="white"/>
<circle cx="344.706" cy="100.754" r="7.68364" transform="rotate(147.27 344.706 100.754)" fill="white"/>
<circle cx="391.642" cy="82.8437" r="7.02147" transform="rotate(147.27 391.642 82.8437)" fill="white"/>
<circle cx="411.931" cy="123.501" r="5.85123" transform="rotate(147.27 411.931 123.501)" fill="white"/>
<circle cx="484.612" cy="83.847" r="8.65982" transform="rotate(147.27 484.612 83.847)" fill="white"/>
<circle cx="440.481" cy="93.4654" r="3.97884" transform="rotate(147.27 440.481 93.4654)" fill="white"/>
<circle cx="678.778" cy="114.585" r="9.36197" fill="white"/>
<circle cx="703.821" cy="105.457" r="5.85123" fill="white"/>
<circle cx="698.204" cy="146.65" r="5.85123" fill="white"/>
<circle cx="742.206" cy="129.331" r="11.4684" fill="white"/>
<circle cx="704.992" cy="174.502" r="7.02147" fill="white"/>
<circle cx="709.907" cy="129.33" r="5.85123" fill="white"/>
<circle cx="675.267" cy="167.246" r="8.65982" fill="white"/>
<circle cx="669.65" cy="139.161" r="3.97884" fill="white"/>
<circle cx="764.517" cy="104.643" r="7.66752" transform="rotate(44.687 764.517 104.643)" fill="white"/>
<circle cx="829.997" cy="113.752" r="4.7922" transform="rotate(44.687 829.997 113.752)" fill="white"/>
<circle cx="803.001" cy="134.502" r="4.7922" transform="rotate(44.687 803.001 134.502)" fill="white"/>
<circle cx="867.598" cy="126.464" r="9.39271" transform="rotate(44.687 867.598 126.464)" fill="white"/>
<circle cx="790.911" cy="154.629" r="5.75064" transform="rotate(44.687 790.911 154.629)" fill="white"/>
<circle cx="819.79" cy="131.157" r="4.7922" transform="rotate(44.687 819.79 131.157)" fill="white"/>
<circle cx="777.782" cy="133.284" r="7.09246" transform="rotate(44.687 777.782 133.284)" fill="white"/>
<circle cx="790.688" cy="113.695" r="3.2587" transform="rotate(44.687 790.688 113.695)" fill="white"/>
<circle cx="1279.03" cy="125.038" r="9.36197" transform="rotate(120 1279.03 125.038)" fill="white"/>
<circle cx="1303.72" cy="152.537" r="5.85123" transform="rotate(120 1303.72 152.537)" fill="white"/>
<circle cx="1189.98" cy="116.025" r="5.85123" transform="rotate(120 1189.98 116.025)" fill="white"/>
<circle cx="1164.7" cy="135.217" r="5.85123" transform="rotate(120 1164.7 135.217)" fill="white"/>
<circle cx="1227.59" cy="141.933" r="7.68364" transform="rotate(120 1227.59 141.933)" fill="white"/>
<circle cx="1143.83" cy="114.815" r="7.02147" transform="rotate(120 1143.83 114.815)" fill="white"/>
<circle cx="1278.92" cy="100.11" r="5.85123" transform="rotate(120 1278.92 100.11)" fill="white"/>
<circle cx="1079.6" cy="124.543" r="8.65982" transform="rotate(120 1079.6 124.543)" fill="white"/>
<circle cx="1239.38" cy="114.403" r="3.97884" transform="rotate(120 1239.38 114.403)" fill="white"/>
<circle cx="1021.72" cy="134.544" r="9.36197" transform="rotate(147.27 1021.72 134.544)" fill="white"/>
<circle cx="991.846" cy="163.806" r="5.85123" transform="rotate(147.27 991.846 163.806)" fill="white"/>
<circle cx="974.3" cy="126.117" r="5.85123" transform="rotate(147.27 974.3 126.117)" fill="white"/>
<circle cx="906.594" cy="124.267" r="7.68364" transform="rotate(147.27 906.594 124.267)" fill="white"/>
<circle cx="953.531" cy="106.357" r="7.02147" transform="rotate(147.27 953.531 106.357)" fill="white"/>
<circle cx="973.82" cy="147.014" r="5.85123" transform="rotate(147.27 973.82 147.014)" fill="white"/>
<circle cx="1046.5" cy="107.36" r="8.65982" transform="rotate(147.27 1046.5 107.36)" fill="white"/>
<circle cx="1002.37" cy="116.979" r="3.97884" transform="rotate(147.27 1002.37 116.979)" fill="white"/>
<circle cx="782.561" cy="94.3153" r="9.36197" fill="white"/>
<circle cx="807.605" cy="85.1873" r="5.85123" fill="white"/>
<circle cx="801.987" cy="126.38" r="5.85123" fill="white"/>
<circle cx="845.989" cy="109.06" r="11.4684" fill="white"/>
<circle cx="808.775" cy="154.232" r="7.02147" fill="white"/>
<circle cx="813.69" cy="109.06" r="5.85123" fill="white"/>
<circle cx="779.051" cy="146.976" r="8.65982" fill="white"/>
<circle cx="773.433" cy="118.89" r="3.97884" fill="white"/>
<circle cx="868.3" cy="84.3727" r="7.66752" transform="rotate(44.687 868.3 84.3727)" fill="white"/>
<circle cx="933.78" cy="93.4814" r="4.7922" transform="rotate(44.687 933.78 93.4814)" fill="white"/>
<circle cx="906.784" cy="114.232" r="4.7922" transform="rotate(44.687 906.784 114.232)" fill="white"/>
<circle cx="971.381" cy="106.194" r="9.39271" transform="rotate(44.687 971.381 106.194)" fill="white"/>
<circle cx="894.695" cy="134.359" r="5.75064" transform="rotate(44.687 894.695 134.359)" fill="white"/>
<circle cx="923.573" cy="110.887" r="4.7922" transform="rotate(44.687 923.573 110.887)" fill="white"/>
<circle cx="881.566" cy="113.014" r="7.09246" transform="rotate(44.687 881.566 113.014)" fill="white"/>
<circle cx="894.471" cy="93.4251" r="3.2587" transform="rotate(44.687 894.471 93.4251)" fill="white"/>
<circle cx="1382.81" cy="104.768" r="9.36197" transform="rotate(120 1382.81 104.768)" fill="white"/>
<circle cx="1407.51" cy="132.266" r="5.85123" transform="rotate(120 1407.51 132.266)" fill="white"/>
<circle cx="1293.76" cy="95.7548" r="5.85123" transform="rotate(120 1293.76 95.7548)" fill="white"/>
<circle cx="1268.48" cy="114.947" r="5.85123" transform="rotate(120 1268.48 114.947)" fill="white"/>
<circle cx="1331.37" cy="121.663" r="7.68364" transform="rotate(120 1331.37 121.663)" fill="white"/>
<circle cx="1247.61" cy="94.5448" r="7.02147" transform="rotate(120 1247.61 94.5448)" fill="white"/>
<circle cx="1382.7" cy="79.8395" r="5.85123" transform="rotate(120 1382.7 79.8395)" fill="white"/>
<circle cx="1183.38" cy="104.272" r="8.65982" transform="rotate(120 1183.38 104.272)" fill="white"/>
<circle cx="1343.16" cy="94.1333" r="3.97884" transform="rotate(120 1343.16 94.1333)" fill="white"/>
<circle cx="1125.51" cy="114.274" r="9.36197" transform="rotate(147.27 1125.51 114.274)" fill="white"/>
<circle cx="1095.63" cy="143.536" r="5.85123" transform="rotate(147.27 1095.63 143.536)" fill="white"/>
<circle cx="1078.08" cy="105.847" r="5.85123" transform="rotate(147.27 1078.08 105.847)" fill="white"/>
<circle cx="1010.38" cy="103.997" r="7.68364" transform="rotate(147.27 1010.38 103.997)" fill="white"/>
<circle cx="1057.31" cy="86.0869" r="7.02147" transform="rotate(147.27 1057.31 86.0869)" fill="white"/>
<circle cx="1077.6" cy="126.744" r="5.85123" transform="rotate(147.27 1077.6 126.744)" fill="white"/>
<circle cx="1150.28" cy="87.0903" r="8.65982" transform="rotate(147.27 1150.28 87.0903)" fill="white"/>
<circle cx="1106.15" cy="96.7086" r="3.97884" transform="rotate(147.27 1106.15 96.7086)" fill="white"/>
</svg>
