<svg width="118" height="118" viewBox="0 0 118 118" fill="none" xmlns="http://www.w3.org/2000/svg">
<g clip-path="url(#clip0)">
<path d="M40.4741 75.0952C39.9077 74.4344 39.2705 73.9388 38.6569 73.632C38.0433 73.3252 37.4297 73.2308 36.8869 73.3016C36.3441 73.3488 35.8957 73.5848 35.5653 73.9152C34.8573 74.6232 34.6685 75.6616 34.6213 76.6292C34.5977 77.644 34.7157 78.6352 35.0225 79.6264C35.1169 79.886 35.3529 80.5232 35.5181 81.5852C35.6597 82.6236 35.6597 84.1104 35.0461 85.668C34.7393 86.4468 34.2909 87.2728 33.6773 88.028C33.1109 88.7596 32.3557 89.3732 31.4589 89.8216C30.5621 90.27 29.5001 90.5296 28.3909 90.5296C27.3053 90.5296 26.1489 90.2464 25.1341 89.7272C24.6385 89.4676 24.1193 89.1136 23.7181 88.736C23.2933 88.382 22.9393 87.9572 22.6325 87.438C22.0425 86.494 21.7357 85.3376 21.7357 84.2284C21.7357 81.9628 23.0809 79.8388 24.7565 78.9656C25.6061 78.5172 26.5029 78.3284 27.3053 78.3284C28.1077 78.3284 28.8157 78.4936 29.3821 78.7296C29.9485 78.942 30.3261 79.2016 30.5857 79.3904C30.8453 79.5792 30.9869 79.6972 30.9869 79.6972C30.9869 79.6972 30.8689 79.5556 30.6565 79.3432C30.4441 79.1308 30.0665 78.7768 29.5473 78.47C29.0281 78.1632 28.2965 77.8328 27.3997 77.6912C26.5029 77.5496 25.4409 77.5732 24.3789 77.9744C23.8361 78.1632 23.2933 78.4464 22.7741 78.824C22.2313 79.178 21.7829 79.6264 21.3581 80.1692C20.4849 81.2076 19.8477 82.5528 19.5881 84.0632C19.3285 85.5736 19.4701 87.2256 20.1545 88.7832C20.4849 89.562 20.9097 90.2936 21.4761 90.978C22.0189 91.6388 22.6325 92.2052 23.3169 92.748C24.6857 93.7864 26.3377 94.4944 28.0369 94.8012C29.7833 95.108 31.5533 94.99 33.2053 94.4708C34.8809 93.9752 36.3913 93.0784 37.6185 91.9692C38.7985 90.9072 39.7661 89.7036 40.4741 88.4528C41.2057 87.202 41.6777 85.904 41.9609 84.7004C42.2441 83.4968 42.3621 82.3876 42.3621 81.3964C42.3621 79.4376 42.0081 78.116 41.8665 77.644C41.5125 76.6056 41.0405 75.756 40.4741 75.0952Z" fill="#FF6143"/>
<path d="M63.956 48.2856C65.0652 49.6544 65.7024 51.0468 66.0328 52.038C66.3632 53.0528 66.4812 53.6428 66.4812 53.6428C66.4812 53.6428 66.4812 53.0292 66.316 51.9672C66.1508 50.9052 65.7496 49.3712 64.8292 47.6956C63.9088 46.02 62.422 44.2264 60.298 42.834C59.2596 42.126 58.056 41.5832 56.7816 41.1584C55.4836 40.7336 54.0912 40.5212 52.6752 40.4976C51.9436 40.474 51.2592 40.5212 50.5748 40.6156C49.8668 40.71 49.1824 40.8044 48.498 40.946C47.1292 41.2528 45.8076 41.7248 44.5804 42.3148C42.0788 43.5184 40.0256 45.2176 38.5152 47.0112C36.9812 48.8048 35.99 50.6456 35.4 52.1088C34.81 53.572 34.5504 54.6576 34.5032 55.0588C34.22 56.6636 34.5504 58.174 35.2112 59.1416C35.872 60.1092 36.816 60.6048 37.7364 60.4632C38.6568 60.3452 39.4356 59.7316 40.0256 58.9528C40.6156 58.174 41.0404 57.2536 41.2056 56.2152C41.2528 55.9556 41.3236 55.224 41.5596 54.2328C41.8192 53.218 42.2676 51.8492 43.1172 50.4332C43.9904 49.0172 45.2412 47.5304 46.9168 46.3268C47.7664 45.7132 48.7104 45.2176 49.7252 44.7928C50.2208 44.5804 50.7636 44.3916 51.2828 44.25C51.8256 44.1084 52.3684 43.9668 52.9112 43.896C55.0588 43.5656 57.3716 43.8724 59.3304 44.7456C61.2656 45.5716 62.8704 46.9168 63.956 48.2856Z" fill="#FF6143"/>
<path d="M104.619 74.7412C103.816 74.104 102.778 73.5376 101.598 73.1836C101.315 73.0892 100.748 72.924 99.9931 72.7824C99.2379 72.6408 98.2231 72.5228 97.0195 72.5936C95.8395 72.6408 94.4707 72.8532 93.0075 73.3252C91.5915 73.7972 90.0575 74.576 88.6887 75.7088C87.2727 76.818 85.9983 78.4228 85.2195 80.2872C84.4407 82.1516 84.1339 84.2992 84.4643 86.4232C84.7711 88.5236 85.7151 90.5768 87.1783 92.1816C88.6651 93.8572 90.8127 94.9192 92.9603 95.1316C94.0459 95.2496 95.1551 95.1316 96.1699 94.8484C97.2083 94.5652 98.1759 94.0932 99.0255 93.4796C99.4503 93.1728 99.8279 92.8188 100.205 92.4176C100.559 92.0164 100.866 91.6152 101.126 91.1668C101.621 90.27 101.928 89.2552 101.999 88.2876C102.093 87.2964 101.952 86.3288 101.645 85.4556C101.338 84.5824 100.866 83.8036 100.276 83.1428C99.6627 82.5056 98.9311 82.0336 98.1523 81.7504C97.3735 81.4672 96.5947 81.3964 95.8395 81.4436C95.0843 81.4908 94.4235 81.7268 93.8335 82.0336C93.2435 82.3404 92.7479 82.7652 92.3703 83.2136C91.6151 84.134 91.4263 85.196 91.4735 86.022C91.5207 86.8716 91.8039 87.438 92.0163 87.8156C92.2287 88.1696 92.4175 88.3584 92.4175 88.3584C92.4175 88.3584 92.2759 88.1932 92.0871 87.792C91.8983 87.3908 91.6859 86.8008 91.6859 86.022C91.7095 85.2432 91.9927 84.2756 92.7243 83.4968C93.4559 82.7416 94.6359 82.1752 95.8867 82.1752C96.5239 82.1752 97.1847 82.3168 97.7983 82.6C98.4119 82.8832 98.9783 83.3316 99.4031 83.8508C100.276 84.96 100.725 86.5412 100.465 88.0516C100.347 88.8068 100.04 89.5384 99.6155 90.1756C99.4031 90.4824 99.1435 90.7892 98.8603 91.0488C98.5771 91.3084 98.2703 91.5208 97.9399 91.7568C96.5711 92.6064 94.8955 92.9132 93.3615 92.6064C91.8039 92.3232 90.3879 91.4264 89.4675 90.2228C88.9955 89.6092 88.6179 88.9012 88.3583 88.1696C88.0751 87.438 87.9335 86.6828 87.8863 85.9512C87.7683 84.4644 88.0987 83.0012 88.7595 81.7976C89.3731 80.594 90.2699 79.65 91.2847 78.9892C92.3231 78.2812 93.3851 77.8328 94.3999 77.5968C95.4147 77.3372 96.3351 77.2664 97.1375 77.29C98.7423 77.3372 99.7571 77.7384 100.135 77.8564C101.645 78.3284 102.99 78.9184 104.147 79.3432C105.256 79.768 106.223 80.004 106.766 79.6028C107.049 79.414 107.191 79.0128 107.167 78.5408C107.144 78.0452 106.955 77.4316 106.53 76.7472C106.058 76.11 105.445 75.3784 104.619 74.7412Z" fill="#FF6143"/>
<path d="M64.1213 20.8152L69.4785 27.3996L77.3137 20.0364L69.4785 12.6732L64.1213 20.8152Z" fill="#FF6143"/>
<path d="M67.26 103.58L72.452 105.327L74.1984 98.5536L67.3072 97.2556L67.26 103.58Z" fill="#FF6143"/>
<path d="M0 53.0764L5.8292 60.8644L13.8296 58.1268L9.6288 48.2148L0 53.0764Z" fill="#FF6143"/>
<path d="M90.6948 59.9912L94.5416 57.7964L93.5032 52.7932L88.2876 54.8936L90.6948 59.9912Z" fill="#FF6143"/>
<path d="M58.6694 68.086V70.328L66.8586 66.6228L65.6078 62.8704L58.6694 68.086Z" fill="#FF6143"/>
<path d="M37.3116 18.9744L30.1372 13.4992L27.4468 16.3784L35.3528 20.0364L37.3116 18.9744Z" fill="#FF6143"/>
<path d="M114.743 48.2148L112.289 56.5692L113.634 58.3628L118 50.4568L114.743 48.2148Z" fill="#FF6143"/>
<path d="M74.2928 74.9772C72.9712 74.9772 71.9092 76.0392 71.9092 77.3608C71.9092 78.6824 72.9712 79.7444 74.2928 79.7444C75.6144 79.7444 76.6764 78.6824 76.6764 77.3608C76.6528 76.0392 75.5908 74.9772 74.2928 74.9772Z" fill="#FF6143"/>
<path d="M87.8392 44.2028C89.1608 44.2028 90.2228 43.1408 90.2228 41.8192C90.2228 40.4976 89.1608 39.4356 87.8392 39.4356C86.5176 39.4356 85.4556 40.4976 85.4556 41.8192C85.4556 43.1408 86.5176 44.2028 87.8392 44.2028Z" fill="#FF6143"/>
<path d="M23.0337 35.3528C24.8273 35.3528 26.2905 33.8896 26.2905 32.096C26.2905 30.3024 24.8273 28.8392 23.0337 28.8392C21.2401 28.8392 19.7769 30.3024 19.7769 32.096C19.7769 33.8896 21.2401 35.3528 23.0337 35.3528Z" fill="#FF6143"/>
<path d="M44.6985 28.1312L43.3533 27.3524L41.7485 30.0664L44.3917 31.6004L44.6985 28.1312Z" fill="#FF6143"/>
</g>
<defs>
<clipPath id="clip0">
<rect width="118" height="118" fill="white"/>
</clipPath>
</defs>
</svg>
