<svg width="168" height="33" viewBox="0 0 168 33" fill="none" xmlns="http://www.w3.org/2000/svg">
<path d="M17.6094 19.2598C17.5456 20.6452 17.1719 21.8711 16.4883 22.9375C15.8047 23.9948 14.8431 24.8151 13.6035 25.3984C12.373 25.9818 10.9648 26.2734 9.37891 26.2734C6.76302 26.2734 4.70312 25.4212 3.19922 23.7168C1.69531 22.0124 0.943359 19.6061 0.943359 16.498V15.5137C0.943359 13.5632 1.2806 11.8587 1.95508 10.4004C2.63867 8.93294 3.61849 7.80273 4.89453 7.00977C6.17057 6.20768 7.64714 5.80664 9.32422 5.80664C11.7396 5.80664 13.681 6.44466 15.1484 7.7207C16.6159 8.98763 17.4499 10.7376 17.6504 12.9707H12.8652C12.8288 11.7585 12.5234 10.888 11.9492 10.3594C11.375 9.83073 10.5 9.56641 9.32422 9.56641C8.13021 9.56641 7.25521 10.013 6.69922 10.9062C6.14323 11.7995 5.85156 13.2259 5.82422 15.1855V16.5938C5.82422 18.7174 6.08854 20.235 6.61719 21.1465C7.15495 22.0579 8.07552 22.5137 9.37891 22.5137C10.4818 22.5137 11.3249 22.2539 11.9082 21.7344C12.4915 21.2148 12.8014 20.39 12.8379 19.2598H17.6094ZM30.8 26C30.6359 25.6992 30.4901 25.2572 30.3625 24.6738C29.5148 25.7402 28.3299 26.2734 26.8078 26.2734C25.4133 26.2734 24.2284 25.8542 23.2531 25.0156C22.2779 24.168 21.7902 23.1061 21.7902 21.8301C21.7902 20.2259 22.3827 19.0137 23.5676 18.1934C24.7525 17.373 26.4751 16.9629 28.7355 16.9629H30.1574V16.1836C30.1574 14.8255 29.5695 14.1465 28.3937 14.1465C27.3 14.1465 26.7531 14.6842 26.7531 15.7598H22.1457C22.1457 14.3288 22.7518 13.1667 23.9641 12.2734C25.1854 11.3802 26.7395 10.9336 28.6262 10.9336C30.5129 10.9336 32.0031 11.3939 33.0969 12.3145C34.1906 13.235 34.7512 14.4974 34.7785 16.1016V22.6504C34.7967 24.0085 35.0064 25.0475 35.4074 25.7676V26H30.8ZM27.9152 22.9922C28.4895 22.9922 28.9634 22.8691 29.3371 22.623C29.7199 22.377 29.9934 22.099 30.1574 21.7891V19.4238H28.8176C27.2134 19.4238 26.4113 20.1439 26.4113 21.584C26.4113 22.0033 26.5526 22.3451 26.8352 22.6094C27.1177 22.8646 27.4777 22.9922 27.9152 22.9922ZM49.0902 15.377L47.5727 15.2676C46.1234 15.2676 45.1937 15.7233 44.7836 16.6348V26H40.1762V11.207H44.4965L44.6469 13.1074C45.4216 11.6582 46.5017 10.9336 47.8871 10.9336C48.3793 10.9336 48.8077 10.9883 49.1723 11.0977L49.0902 15.377ZM57.7828 11.207L57.9332 12.9434C58.954 11.6035 60.3622 10.9336 62.1578 10.9336C63.6982 10.9336 64.8466 11.3939 65.6031 12.3145C66.3687 13.235 66.7652 14.6204 66.7926 16.4707V26H62.1715V16.6621C62.1715 15.9147 62.0211 15.3678 61.7203 15.0215C61.4195 14.666 60.8727 14.4883 60.0797 14.4883C59.1773 14.4883 58.5074 14.8438 58.0699 15.5547V26H53.4625V11.207H57.7828ZM80.4891 26C80.325 25.6992 80.1792 25.2572 80.0516 24.6738C79.2039 25.7402 78.019 26.2734 76.4969 26.2734C75.1023 26.2734 73.9174 25.8542 72.9422 25.0156C71.9669 24.168 71.4793 23.1061 71.4793 21.8301C71.4793 20.2259 72.0717 19.0137 73.2566 18.1934C74.4415 17.373 76.1642 16.9629 78.4246 16.9629H79.8465V16.1836C79.8465 14.8255 79.2586 14.1465 78.0828 14.1465C76.9891 14.1465 76.4422 14.6842 76.4422 15.7598H71.8348C71.8348 14.3288 72.4409 13.1667 73.6531 12.2734C74.8745 11.3802 76.4285 10.9336 78.3152 10.9336C80.202 10.9336 81.6922 11.3939 82.7859 12.3145C83.8797 13.235 84.4402 14.4974 84.4676 16.1016V22.6504C84.4858 24.0085 84.6954 25.0475 85.0965 25.7676V26H80.4891ZM77.6043 22.9922C78.1785 22.9922 78.6525 22.8691 79.0262 22.623C79.409 22.377 79.6824 22.099 79.8465 21.7891V19.4238H78.5066C76.9025 19.4238 76.1004 20.1439 76.1004 21.584C76.1004 22.0033 76.2417 22.3451 76.5242 22.6094C76.8068 22.8646 77.1668 22.9922 77.6043 22.9922ZM102.32 21.1055C102.32 20.0026 101.933 19.1322 101.158 18.4941C100.383 17.847 98.9661 17.2363 96.9062 16.6621C94.8464 16.0788 93.3424 15.4453 92.3945 14.7617C91.0456 13.7956 90.3711 12.5286 90.3711 10.9609C90.3711 9.4388 90.9954 8.20378 92.2441 7.25586C93.502 6.29883 95.1061 5.82031 97.0566 5.82031C98.3783 5.82031 99.5586 6.07552 100.598 6.58594C101.646 7.09635 102.457 7.80729 103.031 8.71875C103.605 9.63021 103.893 10.6465 103.893 11.7676H102.197C102.197 10.4095 101.732 9.32031 100.803 8.5C99.873 7.67057 98.6243 7.25586 97.0566 7.25586C95.5345 7.25586 94.3223 7.59766 93.4199 8.28125C92.5176 8.95573 92.0664 9.83984 92.0664 10.9336C92.0664 11.9453 92.472 12.7702 93.2832 13.4082C94.0944 14.0462 95.3932 14.6113 97.1797 15.1035C98.9661 15.5866 100.32 16.0924 101.24 16.6211C102.161 17.1406 102.854 17.765 103.318 18.4941C103.783 19.2233 104.016 20.0846 104.016 21.0781C104.016 22.6458 103.387 23.9036 102.129 24.8516C100.88 25.7995 99.2305 26.2734 97.1797 26.2734C95.776 26.2734 94.4863 26.0228 93.3105 25.5215C92.1439 25.0202 91.2552 24.3184 90.6445 23.416C90.043 22.5137 89.7422 21.4792 89.7422 20.3125H91.4238C91.4238 21.7161 91.9479 22.8236 92.9961 23.6348C94.0443 24.446 95.4388 24.8516 97.1797 24.8516C98.7292 24.8516 99.9733 24.5098 100.912 23.8262C101.851 23.1426 102.32 22.2357 102.32 21.1055ZM112.612 7.41992V11.207H115.675V12.5469H112.612V22.4043C112.612 23.2246 112.758 23.8353 113.05 24.2363C113.351 24.6374 113.848 24.8379 114.54 24.8379C114.814 24.8379 115.256 24.7923 115.866 24.7012L115.935 26.041C115.506 26.196 114.923 26.2734 114.185 26.2734C113.064 26.2734 112.248 25.9499 111.737 25.3027C111.227 24.6465 110.972 23.6849 110.972 22.418V12.5469H108.251V11.207H110.972V7.41992H112.612ZM120.69 18.3848C120.69 16.9629 120.963 15.6823 121.51 14.543C122.066 13.4036 122.845 12.5195 123.848 11.8906C124.86 11.2526 126.004 10.9336 127.28 10.9336C129.248 10.9336 130.843 11.6263 132.065 13.0117C133.286 14.388 133.897 16.2155 133.897 18.4941V18.8359C133.897 20.2669 133.619 21.5566 133.063 22.7051C132.516 23.8444 131.741 24.724 130.739 25.3438C129.736 25.9635 128.592 26.2734 127.307 26.2734C125.347 26.2734 123.752 25.5853 122.522 24.209C121.301 22.8236 120.69 20.9915 120.69 18.7129V18.3848ZM122.33 18.8359C122.33 20.6042 122.786 22.0579 123.698 23.1973C124.618 24.3275 125.821 24.8926 127.307 24.8926C128.784 24.8926 129.978 24.3275 130.889 23.1973C131.81 22.0579 132.27 20.5586 132.27 18.6992V18.3848C132.27 17.2546 132.06 16.2201 131.641 15.2812C131.222 14.3424 130.634 13.6178 129.877 13.1074C129.121 12.5879 128.255 12.3281 127.28 12.3281C125.821 12.3281 124.632 12.9023 123.711 14.0508C122.791 15.1901 122.33 16.6849 122.33 18.5352V18.8359ZM146.923 12.6016C146.577 12.5378 146.208 12.5059 145.816 12.5059C144.795 12.5059 143.929 12.793 143.218 13.3672C142.517 13.9323 142.015 14.7572 141.714 15.8418V26H140.087V11.207H141.687L141.714 13.5586C142.58 11.8086 143.97 10.9336 145.884 10.9336C146.34 10.9336 146.7 10.9928 146.964 11.1113L146.923 12.6016ZM157.776 26.2734C156.518 26.2734 155.379 25.9635 154.358 25.3438C153.346 24.724 152.558 23.8626 151.993 22.7598C151.428 21.6478 151.145 20.4036 151.145 19.0273V18.4395C151.145 17.0176 151.419 15.737 151.966 14.5977C152.522 13.4583 153.292 12.5651 154.276 11.918C155.261 11.2617 156.327 10.9336 157.475 10.9336C159.271 10.9336 160.693 11.5488 161.741 12.7793C162.798 14.0007 163.327 15.6732 163.327 17.7969V18.7129H152.772V19.0273C152.772 20.7044 153.251 22.1035 154.208 23.2246C155.174 24.3366 156.386 24.8926 157.845 24.8926C158.72 24.8926 159.49 24.7331 160.155 24.4141C160.83 24.0951 161.44 23.5846 161.987 22.8828L163.012 23.6621C161.809 25.403 160.064 26.2734 157.776 26.2734ZM157.475 12.3281C156.245 12.3281 155.206 12.7793 154.358 13.6816C153.52 14.584 153.009 15.7962 152.827 17.3184H161.7V17.1406C161.654 15.7188 161.249 14.5612 160.483 13.668C159.718 12.7747 158.715 12.3281 157.475 12.3281Z" fill="white"/>
</svg>
